<svg width="64" height="64" viewBox="0 0 64 64" fill="none" xmlns="http://www.w3.org/2000/svg">
<path d="M54.852 39.6263L56.772 37.7063C57.812 36.6663 57.812 34.9863 56.772 33.9463L56.7187 33.893C56.2204 33.3936 55.544 33.113 54.8386 33.113C54.1333 33.113 53.4569 33.3936 52.9586 33.893L45.332 41.5196L22.4786 18.6663L30.1053 11.0396C31.1453 9.99962 31.1453 8.31962 30.1053 7.27962L30.052 7.22629C29.5538 6.72695 28.8774 6.44633 28.172 6.44633C27.4666 6.44633 26.7902 6.72695 26.292 7.22629L24.372 9.14629L22.452 7.22629C21.412 6.18629 19.7053 6.18629 18.6653 7.22629L14.852 11.0396L12.932 9.11962C11.892 8.07962 10.1586 8.07962 9.11865 9.11962C8.07865 10.1596 8.07865 11.893 9.11865 12.933L11.0386 14.853L7.22531 18.6663C6.18531 19.7063 6.18531 21.3863 7.22531 22.4263L9.14531 24.3463L7.22531 26.293C6.18531 27.333 6.18531 29.013 7.22531 30.053L7.27865 30.1063C8.31865 31.1463 9.99865 31.1463 11.0386 30.1063L18.6653 22.4796L41.5186 45.333L33.892 52.9596C32.852 53.9996 32.852 55.6796 33.892 56.7196L33.9453 56.773C34.9853 57.813 36.6653 57.813 37.7053 56.773L39.6253 54.853L41.5453 56.773C42.5853 57.813 44.2653 57.813 45.3053 56.773L49.1186 52.9596L51.0386 54.8796C52.0786 55.9196 53.812 55.9196 54.852 54.8796C55.892 53.8396 55.892 52.1063 54.852 51.0663L52.932 49.1463L56.772 45.333C57.812 44.293 57.812 42.613 56.772 41.573L54.852 39.6263Z" fill="#B0B2B6"/>
</svg>
