<svg width="64" height="64" viewBox="0 0 64 64" fill="none" xmlns="http://www.w3.org/2000/svg">
<path fill-rule="evenodd" clip-rule="evenodd" d="M5.33203 31.9997C5.33203 17.2797 17.252 5.33301 31.972 5.33301C46.7187 5.33301 58.6654 17.2797 58.6654 31.9997C58.6654 46.7197 46.7187 58.6663 31.972 58.6663C17.252 58.6663 5.33203 46.7197 5.33203 31.9997ZM22.6654 21.333C20.4562 21.333 18.6654 23.1239 18.6654 25.333C18.6654 27.5421 20.4562 29.333 22.6654 29.333C24.8745 29.333 26.6654 27.5421 26.6654 25.333C26.6654 23.1239 24.8745 21.333 22.6654 21.333ZM41.332 21.333C39.1229 21.333 37.332 23.1239 37.332 25.333C37.332 27.5421 39.1229 29.333 41.332 29.333C43.5412 29.333 45.332 27.5421 45.332 25.333C45.332 23.1239 43.5412 21.333 41.332 21.333ZM31.9987 53.333C20.212 53.333 10.6654 43.7863 10.6654 31.9997C10.6654 20.213 20.212 10.6663 31.9987 10.6663C43.7854 10.6663 53.332 20.213 53.332 31.9997C53.332 43.7863 43.7854 53.333 31.9987 53.333ZM41.012 37.6797C41.572 36.7463 42.8254 36.453 43.7587 37.0397C44.692 37.6263 44.9854 38.853 44.3987 39.7863C41.6787 44.0797 37.0654 46.6663 31.9987 46.6663C26.932 46.6663 22.3187 44.1063 19.5987 39.7597C19.012 38.8263 19.3054 37.5997 20.2387 37.013C21.172 36.4263 22.3987 36.7197 22.9854 37.653C24.9587 40.7997 28.3187 42.6663 31.9987 42.6663C35.6787 42.6663 39.0387 40.7997 41.012 37.6797Z" fill="#B0B2B6"/>
</svg>
