<svg width="64" height="64" viewBox="0 0 64 64" fill="none" xmlns="http://www.w3.org/2000/svg">
<path d="M54 32C54 44.1503 44.1503 54 32 54C19.8497 54 10 44.1503 10 32C10 19.8497 19.8497 10 32 10C37.5382 10 42.5985 12.0464 46.4659 15.4243C47.8452 13.8453 49.7128 12.7038 51.8333 12.2354C46.7636 7.14818 39.7494 4 32 4C16.536 4 4 16.536 4 32C4 47.464 16.536 60 32 60C47.464 60 60 47.464 60 32C60 31.3447 59.9775 30.6946 59.9332 30.0505C58.2735 31.2757 56.2213 32 54 32Z" fill="#B0B2B6"/>
<circle cx="54" cy="22" r="8" fill="#B0B2B6"/>
</svg>
