<svg width="169" height="53" viewBox="0 0 169 53" fill="none" xmlns="http://www.w3.org/2000/svg">
<path fill-rule="evenodd" clip-rule="evenodd" d="M1.52591 7.64413C0 10.6389 0 14.5593 0 22.4V30.6C0 38.4407 0 42.3611 1.52591 45.3559C2.86814 47.9901 5.00986 50.1319 7.64413 51.4741C10.6389 53 14.5593 53 22.4 53H146.6C154.441 53 158.361 53 161.356 51.4741C163.99 50.1319 166.132 47.9901 167.474 45.3559C169 42.3611 169 38.4407 169 30.6V22.4C169 14.5593 169 10.6389 167.474 7.64413C166.132 5.00986 163.99 2.86814 161.356 1.52591C158.361 0 154.441 0 146.6 0H22.4C14.5593 0 10.6389 0 7.64413 1.52591C5.00986 2.86814 2.86814 5.00986 1.52591 7.64413ZM12.774 9.07V37H15.89V34.264L15.396 32.098H16.27C16.7007 33.6433 17.562 34.91 18.854 35.898C20.1713 36.886 21.8687 37.38 23.946 37.38C25.7447 37.38 27.3153 36.962 28.658 36.126C30.026 35.2647 31.0773 34.0867 31.812 32.592C32.5467 31.0973 32.914 29.4127 32.914 27.538C32.914 25.6887 32.5467 24.0167 31.812 22.522C31.0773 21.0273 30.026 19.862 28.658 19.026C27.3153 18.1647 25.7447 17.734 23.946 17.734C21.8687 17.734 20.1713 18.228 18.854 19.216C17.562 20.204 16.7007 21.4833 16.27 23.054H15.396L15.89 20.888V9.07H12.774ZM17.866 32.934C16.5487 31.718 15.89 29.9193 15.89 27.538C15.89 25.182 16.5487 23.4087 17.866 22.218C19.2087 21.0273 20.9187 20.432 22.996 20.432C25.0733 20.432 26.72 21.0273 27.936 22.218C29.1773 23.3833 29.798 25.1567 29.798 27.538C29.798 29.9447 29.1773 31.7433 27.936 32.934C26.6947 34.1247 25.048 34.72 22.996 34.72C20.9187 34.72 19.2087 34.1247 17.866 32.934ZM48.3242 33.732C47.2855 34.3907 46.1075 34.72 44.7902 34.72C43.1435 34.72 41.9275 34.302 41.1422 33.466C40.3822 32.6047 40.0022 31.1987 40.0022 29.248V18.114H36.8862V29.666C36.8862 32.2247 37.5069 34.15 38.7482 35.442C40.0149 36.734 41.7502 37.38 43.9542 37.38C45.9302 37.38 47.5262 36.8607 48.7422 35.822C49.9835 34.758 50.8069 33.3393 51.2122 31.566H52.0862L51.5922 33.732V37H54.7082V18.114H51.5922V26.474C51.5922 28.146 51.3009 29.6027 50.7182 30.844C50.1609 32.0853 49.3629 33.048 48.3242 33.732ZM62.3022 17.772C60.5542 17.696 59.6803 18.5573 59.6803 20.356V37H62.7962V20.432L72.7903 20.812V18.114L62.3022 17.772ZM82.7635 21.42C83.8021 20.7613 84.9801 20.432 86.2975 20.432C87.9441 20.432 89.1475 20.8627 89.9075 21.724C90.6928 22.56 91.0855 23.9407 91.0855 25.866V37H94.2015V25.448C94.2015 22.9147 93.5681 21.002 92.3015 19.71C91.0601 18.3927 89.3375 17.734 87.1335 17.734C85.1575 17.734 83.5488 18.266 82.3075 19.33C81.0915 20.3687 80.2808 21.7747 79.8755 23.548H79.0015L79.4955 21.382V18.114H76.3795V37H79.4955V28.64C79.4955 26.968 79.7741 25.5113 80.3315 24.27C80.9141 23.0287 81.7248 22.0787 82.7635 21.42ZM99.6957 22.56C98.8597 24.0547 98.4417 25.714 98.4417 27.538C98.4417 29.3873 98.8597 31.0593 99.6957 32.554C100.532 34.0487 101.697 35.2267 103.192 36.088C104.712 36.9493 106.46 37.38 108.436 37.38C110.386 37.38 112.122 36.9493 113.642 36.088C115.162 35.2267 116.327 34.0487 117.138 32.554C117.974 31.0593 118.392 29.3873 118.392 27.538C118.392 25.714 117.974 24.0547 117.138 22.56C116.302 21.0653 115.124 19.8873 113.604 19.026C112.109 18.1647 110.386 17.734 108.436 17.734C106.46 17.734 104.712 18.1647 103.192 19.026C101.697 19.8873 100.532 21.0653 99.6957 22.56ZM102.356 31.186C101.824 30.0967 101.558 28.8807 101.558 27.538C101.558 25.486 102.166 23.7887 103.382 22.446C104.598 21.1033 106.282 20.432 108.436 20.432C109.854 20.432 111.07 20.7487 112.084 21.382C113.122 22.0153 113.908 22.8767 114.44 23.966C114.972 25.03 115.238 26.2207 115.238 27.538C115.238 28.8807 114.972 30.0967 114.44 31.186C113.908 32.2753 113.122 33.1367 112.084 33.77C111.07 34.4033 109.854 34.72 108.436 34.72C106.992 34.72 105.75 34.4033 104.712 33.77C103.673 33.1367 102.888 32.2753 102.356 31.186ZM133.75 33.732C132.711 34.3907 131.533 34.72 130.216 34.72C128.569 34.72 127.353 34.302 126.568 33.466C125.808 32.6047 125.428 31.1987 125.428 29.248V18.114H122.312V29.666C122.312 32.2247 122.933 34.15 124.174 35.442C125.441 36.734 127.176 37.38 129.38 37.38C131.356 37.38 132.952 36.8607 134.168 35.822C135.409 34.758 136.233 33.3393 136.638 31.566H137.512L137.018 33.732V37H140.134V18.114H137.018V26.474C137.018 28.146 136.727 29.6027 136.144 30.844C135.587 32.0853 134.789 33.048 133.75 33.732ZM157.338 34.34L150.688 34.72V20.812H156.578V18.114H150.688V12.3L147.534 13.25V18.114H143.392V20.812H147.534V34.796C147.534 36.62 148.408 37.4813 150.156 37.38L157.338 37V34.34Z" fill="black"/>
</svg>
