<svg width="252" height="300" viewBox="0 0 252 300" fill="none" xmlns="http://www.w3.org/2000/svg">
<path fill-rule="evenodd" clip-rule="evenodd" d="M150 294.27C229.678 294.27 294.27 229.678 294.27 150C294.27 70.3216 229.678 5.72957 150 5.72957C70.3216 5.72957 5.72957 70.3216 5.72957 150C5.72957 229.678 70.3216 294.27 150 294.27ZM150 300C232.843 300 300 232.843 300 150C300 67.1573 232.843 0 150 0C67.1573 0 0 67.1573 0 150C0 232.843 67.1573 300 150 300Z" fill="black"/>
<path fill-rule="evenodd" clip-rule="evenodd" d="M96.9157 104.27C109.227 104.27 119.955 96.6691 124.986 85.5039L130.209 87.8575C124.343 100.879 111.69 110 96.9157 110C82.1414 110 69.4888 100.879 63.6219 87.8575L68.8458 85.5039C73.8761 96.6691 84.6046 104.27 96.9157 104.27Z" fill="black"/>
<path fill-rule="evenodd" clip-rule="evenodd" d="M203.085 104.27C215.396 104.27 226.124 96.6691 231.155 85.5039L236.379 87.8575C230.512 100.879 217.859 110 203.085 110C188.311 110 175.658 100.879 169.791 87.8575L175.015 85.5039C180.045 96.6691 190.774 104.27 203.085 104.27Z" fill="black"/>
</svg>
