<svg width="24" height="24" viewBox="0 0 24 24" fill="none" xmlns="http://www.w3.org/2000/svg">
<path d="M0 12C0 1.56 1.56 0 12 0C22.44 0 24 1.56 24 12C24 22.44 22.44 24 12 24C1.56 24 0 22.44 0 12Z" fill="#E83755"/>
<path d="M13.503 14.6171L15.363 5.05713V5.06713H17.653L17.623 5.23713L15.753 14.7771C15.453 16.2872 14.913 17.3072 14.043 17.9972C13.203 18.6572 12.133 18.9872 10.863 18.9872C9.69299 18.9872 8.66304 18.6971 7.86303 18.1571C7.05303 17.6072 6.54303 16.8071 6.38303 15.8372L6.35303 15.6671H8.68302L8.72304 15.7571C9.01302 16.5272 9.82302 16.9671 10.923 16.9671C13.063 16.9671 13.373 15.3171 13.503 14.6171Z" fill="white"/>
<path d="M12.7328 11.3972L12.3428 13.4272L6.34277 10.6472V8.65716L13.9128 5.38721L13.4528 7.78721L9.06274 9.62719L12.7328 11.3972Z" fill="white"/>
</svg>
