<svg width="45" height="45" viewBox="0 0 45 45" fill="none" xmlns="http://www.w3.org/2000/svg">
<path fill-rule="evenodd" clip-rule="evenodd" d="M22.5 4.5C12.5589 4.5 4.5 12.5589 4.5 22.5C4.5 24.5735 4.85061 26.5652 5.49578 28.4189C5.94178 27.7494 6.45257 27.0709 7.01143 26.3922C9.5907 23.2599 13.5407 19.7088 18.237 16.4204C22.9333 13.132 27.6212 10.6348 31.4468 9.28239C32.2779 8.98858 33.0923 8.74011 33.8759 8.54977C30.7753 6.01829 26.8149 4.5 22.5 4.5ZM37.3583 12.6452C37.2353 12.6313 37.0672 12.6226 36.8421 12.6293C35.9466 12.6558 34.6336 12.9287 32.9466 13.5251C29.6035 14.7069 25.2789 16.9831 20.8181 20.1066C16.3572 23.2301 12.7392 26.5154 10.4853 29.2527C9.34786 30.634 8.64234 31.7744 8.31119 32.6068C8.22795 32.8161 8.17858 32.9771 8.14954 33.0973C8.27247 33.1112 8.44066 33.1198 8.66574 33.1132C9.5612 33.0867 10.8742 32.8138 12.5612 32.2174C15.9043 31.0356 20.2289 28.7594 24.6897 25.6359C29.1506 22.5124 32.7686 19.2271 35.0225 16.4898C36.1599 15.1085 36.8655 13.9681 37.1966 13.1357C37.2799 12.9264 37.3292 12.7654 37.3583 12.6452ZM11.9774 37.1056C12.6539 36.9288 13.3514 36.711 14.0611 36.4601C17.8866 35.1077 22.5745 32.6105 27.2708 29.3221C31.9671 26.0337 35.9171 22.4826 38.4964 19.3503C38.9786 18.7647 39.425 18.1792 39.8249 17.5996C40.2647 19.1576 40.5 20.8013 40.5 22.5C40.5 32.4411 32.4411 40.5 22.5 40.5C18.5715 40.5 14.9369 39.2415 11.9774 37.1056ZM4.38628 35.8495C8.48375 41.4 15.0715 45 22.5 45C34.9264 45 45 34.9264 45 22.5C45 10.0736 34.9264 0 22.5 0C10.0736 0 0 10.0736 0 22.5C0 27.4979 1.62953 32.1151 4.38628 35.8495Z" fill="black"/>
</svg>
