<svg width="24" height="24" viewBox="0 0 24 24" fill="none" xmlns="http://www.w3.org/2000/svg">
<path d="M23.4404 12.2247C23.4404 11.2414 23.3606 10.5239 23.1879 9.77979H11.96V14.2178H18.5505C18.4177 15.3207 17.7002 16.9816 16.1056 18.0977L16.0833 18.2463L19.6334 20.9965L19.8793 21.021C22.1382 18.9349 23.4404 15.8654 23.4404 12.2247Z" fill="#4285F4"/>
<path d="M11.9601 23.9177C15.189 23.9177 17.8996 22.8546 19.8795 21.021L16.1058 18.0976C15.096 18.8018 13.7406 19.2935 11.9601 19.2935C8.79769 19.2935 6.11361 17.2074 5.15681 14.324L5.01657 14.3359L1.32513 17.1927L1.27686 17.3269C3.2434 21.2335 7.28284 23.9177 11.9601 23.9177Z" fill="#34A853"/>
<path d="M5.15673 14.324C4.90427 13.58 4.75817 12.7826 4.75817 11.9589C4.75817 11.135 4.90427 10.3378 5.14345 9.59366L5.13676 9.43519L1.39908 6.53247L1.27679 6.59064C0.466289 8.21174 0.0012207 10.0322 0.0012207 11.9589C0.0012207 13.8855 0.466289 15.7059 1.27679 17.327L5.15673 14.324Z" fill="#FBBC05"/>
<path d="M11.9601 4.62403C14.2056 4.62403 15.7204 5.59402 16.5841 6.40461L19.9591 3.10928C17.8863 1.1826 15.1889 0 11.9601 0C7.28281 0 3.24339 2.68406 1.27686 6.59056L5.14351 9.59359C6.11359 6.7102 8.79765 4.62403 11.9601 4.62403Z" fill="#EB4335"/>
</svg>
