<svg width="204" height="13" viewBox="0 0 204 13" fill="none" xmlns="http://www.w3.org/2000/svg">
<g clip-path="url(#clip0_559_1157)">
<path d="M59.2251 7.6247V10.3589H79.0481V13.0093H55.1107V0.00923157H78.9828V2.64647H59.2251V5.18931H78.044V7.63519L59.2251 7.6247Z" fill="black"/>
<path d="M104.915 2.9623V5.72205e-05H130.031V2.9623H119.527V13.0105H115.41V2.97279L104.915 2.9623Z" fill="black"/>
<path d="M157.773 13.0093H153.656V8.29057H136.456V13.0093H132.338V0.00923157H136.456V5.34138H153.656V0.00923157H157.773V13.0093Z" fill="black"/>
<path d="M181.127 13.0108H176.998V8.29209H159.798V5.32716H176.998V-0.00492096H181.127V13.0108Z" fill="black"/>
<path d="M204.001 13.0108H199.884V8.29209H182.684V5.32716H199.884V-0.00492096H204.001V13.0108Z" fill="black"/>
<path d="M48.0913 9.92238C47.5298 9.55799 46.9654 9.23295 46.4901 8.96556V8.9079C50.5629 8.50681 52.164 7.03348 52.164 4.66365C52.164 1.8534 50.5391 5.72205e-05 44.3215 5.72205e-05H27.7929V13.0105H31.9102V2.97279H44.3453C47.3338 2.97279 48.0051 3.62292 48.0051 4.67414C48.0051 5.76468 47.3546 6.35719 44.4404 6.35719H33.8649V9.03372H40.9112L46.9862 13.0105H52.5978V12.8768L48.0913 9.92238Z" fill="black"/>
<path d="M97.157 5.72205e-05H94.2131L81.0829 12.827V13H86.1092L95.642 3.51808H95.7281C95.7281 3.51808 97.0709 4.97038 98.3275 6.19462L100.431 8.25777H93.5982L91.1682 10.6171H102.81L105.258 13.0079H110.284V12.8349L97.157 5.72205e-05Z" fill="black"/>
<path d="M22.4937 6.17369V6.07935C23.4889 5.63894 24.184 4.81579 24.184 3.51815C24.184 1.73815 22.969 0.000118256 18.2041 0.000118256H3.05176e-05V13.0106H18.1744C23.0077 13.0106 24.7098 11.519 24.7098 9.09145C24.73 8.46216 24.5274 7.84296 24.1302 7.32002C23.733 6.79708 23.161 6.39637 22.4937 6.17369V6.17369ZM17.9011 10.4179H4.11734V2.57963H17.5268C19.5201 2.57963 20.0816 3.17207 20.0816 3.93755C20.0816 4.89439 19.2171 5.1985 17.9813 5.1985H6.07498V7.55785H18.0378C19.7697 7.55785 20.5925 8.01665 20.5925 8.9735C20.5925 9.93034 19.9093 10.4179 17.8952 10.4179H17.9011Z" fill="black"/>
</g>
<defs>
<clipPath id="clip0_559_1157">
<rect width="204" height="13" fill="white"/>
</clipPath>
</defs>
</svg>
