<svg width="18" height="10" viewBox="0 0 18 10" fill="none" xmlns="http://www.w3.org/2000/svg">
<path d="M5.26347 0C7.93371 0 10.0982 2.22935 10.0982 4.97921C10.0982 7.72906 7.93355 9.95824 5.26347 9.95824C2.59339 9.95824 0.428589 7.72906 0.428589 4.97921C0.428589 2.22935 2.59323 0 5.26347 0ZM12.9844 0.291669C14.3196 0.291669 15.4019 2.39014 15.4019 4.97921H15.402C15.402 7.5676 14.3197 9.66674 12.9846 9.66674C11.6495 9.66674 10.5672 7.5676 10.5672 4.97921C10.5672 2.39081 11.6493 0.291669 12.9844 0.291669ZM16.7212 0.779912C17.1907 0.779912 17.5714 2.65997 17.5714 4.97921C17.5714 7.29777 17.1908 9.1785 16.7212 9.1785C16.2516 9.1785 15.8712 7.29828 15.8712 4.97921C15.8712 2.66014 16.2518 0.779912 16.7212 0.779912Z" fill="black"/>
</svg>
