<svg width="24" height="24" viewBox="0 0 24 24" fill="none" xmlns="http://www.w3.org/2000/svg">
<path fill-rule="evenodd" clip-rule="evenodd" d="M16.5545 4.77523C15.8658 5.41982 14.9828 5.8596 14 6C14.9828 6.14041 15.8658 6.58019 16.5545 7.22478C16.6305 7.29592 16.7041 7.36955 16.7752 7.44554C17.4198 8.13419 17.8596 9.0172 18 10C18.1404 9.0172 18.5802 8.13419 19.2248 7.44555C19.2959 7.36955 19.3695 7.29592 19.4455 7.22479C20.1342 6.58019 21.0172 6.14041 22 6C21.0172 5.8596 20.1342 5.41982 19.4455 4.77522C19.3695 4.70409 19.2959 4.63046 19.2248 4.55446C18.5802 3.86582 18.1404 2.98281 18 2C17.8596 2.98281 17.4198 3.86582 16.7752 4.55447C16.7041 4.63046 16.6305 4.70409 16.5545 4.77523ZM10.4033 5.83214L11.2222 3.71931L9.10943 4.53831C6.12139 5.69656 4 8.59924 4 11.9999C4 16.4181 7.58172 19.9999 12 19.9999C15.4006 19.9999 18.3033 17.8785 19.4615 14.8904L20.2805 12.7776L18.1677 13.5966C17.4967 13.8567 16.7663 13.9999 16 13.9999C12.6863 13.9999 10 11.3136 10 7.99986C10 7.2336 10.1431 6.50315 10.4033 5.83214ZM6 11.9999C6 10.2167 6.7781 8.61397 8.01452 7.51444C8.00488 7.67507 8 7.83692 8 7.99986C8 12.4181 11.5817 15.9999 16 15.9999C16.1629 15.9999 16.3248 15.995 16.4854 15.9853C15.3859 17.2218 13.7832 17.9999 12 17.9999C8.68629 17.9999 6 15.3136 6 11.9999Z" fill="black"/>
</svg>
