<svg width="24" height="24" viewBox="0 0 24 24" fill="none" xmlns="http://www.w3.org/2000/svg">
<path fill-rule="evenodd" clip-rule="evenodd" d="M12 4C7.58172 4 4 7.58172 4 12C4 12.9216 4.15583 13.8067 4.44257 14.6306C4.64079 14.3331 4.86781 14.0315 5.11619 13.7299C6.26253 12.3377 8.01809 10.7595 10.1053 9.29797C12.1926 7.83646 14.2761 6.72658 15.9763 6.12551C16.3457 5.99492 16.7077 5.88449 17.056 5.7999C15.6779 4.67479 13.9178 4 12 4ZM18.6037 7.62007C18.549 7.61392 18.4743 7.61007 18.3743 7.61302C17.9763 7.62479 17.3927 7.74609 16.6429 8.01115C15.1571 8.53641 13.2351 9.54804 11.2525 10.9363C9.26988 12.3245 7.66188 13.7846 6.66012 15.0012C6.1546 15.6151 5.84104 16.122 5.69386 16.4919C5.65687 16.5849 5.63493 16.6565 5.62202 16.7099C5.67665 16.7161 5.7514 16.7199 5.85144 16.717C6.24942 16.7052 6.83297 16.5839 7.58275 16.3188C9.06857 15.7936 10.9906 14.782 12.9732 13.3937C14.9558 12.0055 16.5638 10.5454 17.5656 9.3288C18.0711 8.71489 18.3847 8.20803 18.5318 7.83807C18.5688 7.74508 18.5908 7.67351 18.6037 7.62007ZM7.32329 18.4914C7.62396 18.4128 7.93396 18.316 8.24936 18.2045C9.94962 17.6034 12.0331 16.4935 14.1204 15.032C16.2076 13.5705 17.9632 11.9923 19.1095 10.6001C19.3238 10.3399 19.5222 10.0797 19.7 9.82204C19.8954 10.5145 20 11.245 20 12C20 16.4183 16.4183 20 12 20C10.254 20 8.63861 19.4407 7.32329 18.4914ZM3.94946 17.9331C5.77055 20.4 8.69843 22 12 22C17.5228 22 22 17.5228 22 12C22 6.47715 17.5228 2 12 2C6.47715 2 2 6.47715 2 12C2 14.2213 2.72424 16.2734 3.94946 17.9331Z" fill="black"/>
</svg>
