<svg width="24" height="24" viewBox="0 0 24 24" fill="none" xmlns="http://www.w3.org/2000/svg">
<path fill-rule="evenodd" clip-rule="evenodd" d="M13 5.9005V2.375H11V5.9005H13ZM4.49719 8.2937L2.00073 5.8008L0.587524 7.21602L3.08399 9.70893L4.49719 8.2937ZM20.916 9.70893L23.4125 7.21602L21.9993 5.8008L19.5028 8.2937L20.916 9.70893ZM9.10241 17.4292C7.73469 16.8534 6.26844 15.7843 4.77138 13.9884C5.78627 12.7586 7.25272 11.4826 8.96626 10.7152C8.83239 11.0644 8.75916 11.4517 8.75916 11.87C8.75916 13.7317 10.2101 15.2409 12 15.2409C13.7898 15.2409 15.2408 13.7317 15.2408 11.87C15.2408 11.4097 15.1521 10.9868 14.9915 10.611C16.3323 11.1958 17.7658 12.2567 19.2286 14.0116C17.9008 15.6207 15.7998 17.3088 13.3839 17.8335C12.0492 18.1234 10.6071 18.0626 9.10241 17.4292ZM21.2926 13.3902C19.4716 11.0235 17.5774 9.52893 15.6736 8.72746C13.7612 7.92239 11.8971 7.84165 10.1916 8.21206C6.82815 8.94258 4.13036 11.409 2.68792 13.4165L2.25396 14.0204L2.70746 14.6098C4.52846 16.9765 6.42259 18.4711 8.32642 19.2725C10.2388 20.0776 12.1029 20.1583 13.8084 19.7879C17.1719 19.0574 19.8697 16.591 21.3121 14.5835L21.7461 13.9796L21.2926 13.3902Z" fill="black"/>
</svg>
