<svg width="24" height="24" viewBox="0 0 24 24" fill="none" xmlns="http://www.w3.org/2000/svg">
<path fill-rule="evenodd" clip-rule="evenodd" d="M12 4C7.58172 4 4 7.58172 4 12C4 16.4183 7.58172 20 12 20C16.4183 20 20 16.4183 20 12C20 7.58172 16.4183 4 12 4ZM2 12C2 6.47715 6.47715 2 12 2C17.5228 2 22 6.47715 22 12C22 17.5228 17.5228 22 12 22C6.47715 22 2 17.5228 2 12Z" fill="black"/>
<path d="M10.4375 9.7C10.4375 10.5284 9.76593 11.2 8.9375 11.2C8.10907 11.2 7.4375 10.5284 7.4375 9.7C7.4375 8.87157 8.10907 8.2 8.9375 8.2C9.76593 8.2 10.4375 8.87157 10.4375 9.7Z" fill="black"/>
<path d="M16.5625 9.7C16.5625 10.5284 15.8909 11.2 15.0625 11.2C14.2341 11.2 13.5625 10.5284 13.5625 9.7C13.5625 8.87157 14.2341 8.2 15.0625 8.2C15.8909 8.2 16.5625 8.87157 16.5625 9.7Z" fill="black"/>
</svg>
