<svg width="24" height="24" viewBox="0 0 24 24" fill="none" xmlns="http://www.w3.org/2000/svg">
<path fill-rule="evenodd" clip-rule="evenodd" d="M16.8633 6.40461C15.9996 5.59402 14.4848 4.62403 12.2393 4.62403C9.07684 4.62403 6.39278 6.7102 5.4227 9.59359C5.18354 10.3377 5.03736 11.1348 5.03736 11.9586C5.03736 12.7824 5.18346 13.5797 5.43592 14.3238C6.39272 17.2072 9.07688 19.2937 12.2393 19.2937C14.0197 19.2937 15.375 18.8022 16.3848 18.098C17.9793 16.9819 18.6969 15.3207 18.8297 14.2178H12.2392V9.77979H23.4671C23.6398 10.5239 23.7196 11.2414 23.7196 12.2247C23.7196 15.8654 22.4174 18.9349 20.1585 21.021C18.1786 22.8547 15.4681 23.9179 12.2393 23.9179C7.56203 23.9179 3.52259 21.2337 1.55605 17.3272C0.745542 15.7061 0.280411 13.8853 0.280411 11.9586C0.280411 10.0319 0.745479 8.21149 1.55598 6.59039C3.52257 2.68403 7.5621 0 12.2393 0C15.4681 0 18.1655 1.1826 20.2383 3.10928L16.8633 6.40461Z" fill="black"/>
</svg>
