<svg width="25" height="20" viewBox="0 0 25 20" fill="none" xmlns="http://www.w3.org/2000/svg">
<path fill-rule="evenodd" clip-rule="evenodd" d="M8.46587 2.83332L11.9595 0.56979L11.8231 9.5003H13.4897L13.4818 9.17975C13.4056 6.29452 14.0687 0.203025 18.6656 0.00614003C23.2624 -0.190686 23.5069 4.40198 22.0228 5.53357C21.6176 5.88606 21.116 6.11863 20.5777 6.20357C20.0395 6.28851 19.4872 6.22225 18.9869 6.01269C17.8704 5.47593 18.4768 4.42892 19.5292 4.31323C20.6256 4.19337 20.1116 2.30839 18.8504 2.30839C15.2316 2.30839 15.1338 7.85134 15.1827 10.3698C15.2467 13.6799 16.1827 17.0094 20.0417 17.0675C20.3582 17.0781 20.6735 17.0257 20.968 16.9133C21.2625 16.801 21.5299 16.6312 21.7533 16.4146C22.5847 15.4705 22.6125 14.7496 22.1748 14.2091C21.9137 13.8848 21.3195 13.7574 20.8456 13.4095C20.5961 13.2272 20.4138 12.9724 20.3257 12.6826C20.2376 12.3927 20.2484 12.0832 20.3564 11.7998C20.4644 11.5163 20.664 11.2738 20.9256 11.1081C21.1873 10.9424 21.4971 10.8624 21.8095 10.8796C22.6779 11.0272 23.4637 11.468 24.0264 12.1232C24.5891 12.7784 24.8923 13.6054 24.8816 14.4565C24.7652 16.8437 23.3113 19.1341 20.4314 19.2885C17.3955 19.4509 13.6775 16.7394 13.5449 11.5825L13.5411 11.4938H11.7317V11.5363C11.6954 13.3632 11.6514 15.3562 10.555 16.8513C9.45863 18.3463 7.77635 19.8295 5.89313 19.8677C1.95397 19.9489 -0.764503 16.6851 0.624835 13.147C1.0224 12.1386 2.70906 11.127 3.64457 11.7218C4.95368 12.5522 4.53608 13.5449 3.68856 14.4102C3.00391 15.1093 2.63228 16.222 4.11842 17.0537C4.63202 17.3202 5.21038 17.4483 5.79288 17.4248C8.66004 17.3667 9.78429 14.3616 9.78429 11.5344V3.52867L8.28644 4.4865C7.09761 5.24746 6.82864 4.77636 6.15033 3.99982C5.55015 3.37467 4.72938 2.98893 3.84945 2.91832C1.7574 2.91077 1.53243 5.0426 3.00637 5.568C3.74531 5.83044 4.96249 5.58359 6.25108 4.70647C6.26722 7.1206 4.12286 8.13269 2.44446 7.59176C1.61747 7.30143 0.924184 6.73707 0.488101 5.99925C0.0520191 5.26144 -0.0985185 4.39811 0.063418 3.56316C0.184501 2.83754 0.554034 2.17212 1.11299 1.67306C1.67188 1.17401 2.38796 0.870176 3.14674 0.810099C3.73262 0.776611 4.31949 0.859053 4.87123 1.05231C5.42291 1.24557 5.92795 1.54565 6.35528 1.93407C7.0888 2.54067 7.28438 3.60278 8.46735 2.8338L8.46587 2.83332Z" fill="#D7B56D"/>
</svg>
