<svg width="41" height="34" viewBox="0 0 41 34" fill="none" xmlns="http://www.w3.org/2000/svg">
<path fill-rule="evenodd" clip-rule="evenodd" d="M13.8927 4.81664L19.6259 0.968643L19.402 16.1505H22.1369L22.124 15.6056C21.9989 10.7007 23.0871 0.345143 30.6307 0.010438C38.1742 -0.324166 38.5755 7.48336 36.1399 9.40706C35.475 10.0063 34.6518 10.4017 33.7685 10.5461C32.8853 10.6905 31.979 10.5778 31.1579 10.2216C29.3258 9.30908 30.3209 7.52917 32.0479 7.33249C33.8471 7.12874 33.0037 3.92426 30.934 3.92426C24.9954 3.92426 24.8349 13.3473 24.9152 17.6287C25.0203 23.2559 26.5563 28.9159 32.8889 29.0147C33.4083 29.0328 33.9258 28.9436 34.409 28.7526C34.8924 28.5617 35.331 28.2731 35.6977 27.9048C37.062 26.2998 37.1077 25.0744 36.3895 24.1555C35.9609 23.6041 34.9859 23.3875 34.2082 22.7961C33.7987 22.4862 33.4996 22.0531 33.355 21.5604C33.2105 21.0676 33.2281 20.5415 33.4053 20.0596C33.5826 19.5777 33.9101 19.1654 34.3395 18.8838C34.7688 18.6022 35.2774 18.466 35.79 18.4954C37.215 18.7463 38.5045 19.4955 39.4279 20.6094C40.3514 21.7233 40.8488 23.1292 40.8313 24.576C40.6403 28.6343 38.2545 32.528 33.5285 32.7905C28.5465 33.0666 22.4451 28.4569 22.2276 19.6903L22.2212 19.5394H19.2519V19.6117C19.1925 22.7174 19.1203 26.1056 17.3211 28.6472C15.5218 31.1887 12.7612 33.7102 9.67078 33.7751C3.20652 33.9132 -1.25457 28.3646 1.02537 22.3498C1.67779 20.6357 4.44563 18.9159 5.98083 19.9271C8.12911 21.3387 7.44382 23.0263 6.05303 24.4974C4.92949 25.6859 4.31964 27.5774 6.75844 28.9914C7.60127 29.4443 8.55037 29.6621 9.50626 29.6221C14.2113 29.5235 16.0563 24.4147 16.0563 19.6085V5.99873L13.5983 7.62706C11.6474 8.92068 11.206 8.11981 10.0928 6.7997C9.10795 5.73693 7.76104 5.08117 6.31705 4.96114C2.88395 4.9483 2.51476 8.57242 4.93353 9.46561C6.14616 9.91175 8.14357 9.4921 10.2582 8.001C10.2847 12.105 6.76572 13.8256 4.01143 12.906C2.6543 12.4124 1.51661 11.453 0.800987 10.1987C0.0853647 8.94444 -0.161671 7.47679 0.10407 6.05738C0.30277 4.82382 0.909184 3.6926 1.82644 2.84421C2.74359 1.99582 3.9187 1.4793 5.16389 1.37717C6.12533 1.32024 7.08839 1.46039 7.99381 1.78893C8.89914 2.11746 9.72791 2.62761 10.4292 3.28792C11.6329 4.31914 11.9539 6.12472 13.8951 4.81745L13.8927 4.81664Z" fill="#D7B56D"/>
</svg>
