<svg width="39" height="34" viewBox="0 0 39 34" fill="none" xmlns="http://www.w3.org/2000/svg">
<path d="M28.026 2.94525C31.323 2.94525 34 16.7522 34 33.7847H38.7786C38.7786 15.442 33.964 0.574276 28.026 0.574276C24.6506 0.574276 21.6408 5.0447 19.6696 12.0324C17.6941 5.0447 14.6843 0.574276 11.3079 0.574276C5.37092 0.574276 0.560547 15.442 0.560547 33.7847H5.33595C5.33595 16.7522 8.00767 2.94525 11.3079 2.94525C14.6048 2.94525 17.2766 15.6904 17.2766 31.4137H22.0541C22.0541 15.6904 24.7311 2.94525 28.026 2.94525Z" fill="#FFC425"/>
<path d="M19.6085 21.3892L19.4463 21.3839L19.476 20.8198C19.476 20.8198 19.4972 20.5315 19.157 20.5315C18.82 20.5315 18.0178 20.5357 18.0178 20.5357L18.3654 19.9348L16.9336 19.0182L17.579 18.9961L17.2939 18.2237L18.1089 18.3531L18.1396 17.728L18.9271 18.6299L18.5466 16.7746L19.2164 17.0945L19.6149 16.0305L20.0112 17.0945L20.681 16.7746L20.3048 18.6299L21.088 17.728L21.1176 18.3531L21.9008 18.2237L21.6496 18.9961L22.294 19.0182L20.8675 19.9348L21.213 20.5357C21.213 20.5357 20.4786 20.5315 20.0801 20.5315C19.6816 20.5315 19.7494 20.8198 19.7494 20.8198L19.7812 21.3839L19.6202 21.3892H19.6085Z" fill="#EE3124"/>
</svg>
