<svg width="24" height="20" viewBox="0 0 24 20" fill="none" xmlns="http://www.w3.org/2000/svg">
<path d="M17.0786 1.7327C19.0877 1.7327 20.719 9.85444 20.719 19.8735H23.6309C23.6309 9.08374 20.697 0.338009 17.0786 0.338009C15.0217 0.338009 13.1876 2.96767 11.9864 7.07807C10.7826 2.96767 8.94848 0.338009 6.89093 0.338009C3.27312 0.338009 0.341797 9.08374 0.341797 19.8735H3.25181C3.25181 9.85444 4.87989 1.7327 6.89093 1.7327C8.90004 1.7327 10.5281 9.22984 10.5281 18.4788H13.4394C13.4394 9.22984 15.0707 1.7327 17.0786 1.7327Z" fill="#FFC425"/>
<path d="M11.9494 12.582L11.8505 12.5789L11.8686 12.2471C11.8686 12.2471 11.8815 12.0775 11.6742 12.0775C11.4689 12.0775 10.98 12.08 10.98 12.08L11.1918 11.7265L10.3193 11.1873L10.7126 11.1743L10.5389 10.72L11.0355 10.7961L11.0543 10.4284L11.5341 10.9589L11.3023 9.86756L11.7104 10.0557L11.9532 9.4299L12.1948 10.0557L12.6029 9.86756L12.3737 10.9589L12.8509 10.4284L12.869 10.7961L13.3462 10.72L13.1932 11.1743L13.5858 11.1873L12.7166 11.7265L12.9271 12.08C12.9271 12.08 12.4796 12.0775 12.2367 12.0775C11.9939 12.0775 12.0352 12.2471 12.0352 12.2471L12.0546 12.5789L11.9565 12.582H11.9494Z" fill="#EE3124"/>
</svg>
