<svg width="24" height="24" viewBox="0 0 24 24" fill="none" xmlns="http://www.w3.org/2000/svg">
<path fill-rule="evenodd" clip-rule="evenodd" d="M12 22C17.5228 22 22 17.5228 22 12C22 6.47715 17.5228 2 12 2C6.47715 2 2 6.47715 2 12C2 17.5228 6.47715 22 12 22ZM11.324 12.7015C11.1338 13.0398 11.0386 13.4179 11.0386 13.8358C11.0386 14.0398 11.0637 14.2687 11.1137 14.5224H12.4957V14.3731C12.4957 13.9453 12.5984 13.5746 12.8036 13.2612C13.0089 12.9428 13.2593 12.6791 13.5547 12.4701C13.8552 12.2612 14.1506 12.0398 14.441 11.806C14.7364 11.5672 14.9868 11.2488 15.1921 10.8507C15.3974 10.4478 15.5 9.96517 15.5 9.40299C15.5 8.60697 15.1745 7.92537 14.5236 7.35821C13.8727 6.78607 13.044 6.5 12.0376 6.5C11.4918 6.5 10.9961 6.59204 10.5504 6.77612C10.1048 6.9602 9.76431 7.16169 9.52897 7.3806C9.29363 7.5995 9.08584 7.85323 8.90558 8.14179C8.72532 8.43035 8.61767 8.63184 8.58262 8.74627C8.54757 8.8607 8.52003 8.95274 8.5 9.02239L9.88197 9.5597L9.94206 9.40299C9.97711 9.29353 10.0422 9.16418 10.1373 9.01493C10.2325 8.86567 10.3552 8.71891 10.5054 8.57463C10.6556 8.42537 10.8659 8.29851 11.1363 8.19403C11.4067 8.08458 11.7071 8.02985 12.0376 8.02985C12.5583 8.02985 12.9814 8.1791 13.3069 8.47761C13.6373 8.77114 13.8026 9.13184 13.8026 9.5597C13.8026 9.89303 13.7074 10.199 13.5172 10.4776C13.3319 10.7512 13.1016 10.995 12.8262 11.209C12.5558 11.4229 12.2854 11.6393 12.015 11.8582C11.7446 12.0771 11.5143 12.3582 11.324 12.7015ZM10.8058 16.5149C10.8058 16.7786 10.9059 17.0099 11.1062 17.209C11.3065 17.403 11.5393 17.5 11.8047 17.5C12.0701 17.5 12.3029 17.403 12.5032 17.209C12.7035 17.0099 12.8036 16.7786 12.8036 16.5149C12.8036 16.2463 12.7035 16.0124 12.5032 15.8134C12.3029 15.6144 12.0701 15.5149 11.8047 15.5149C11.5393 15.5149 11.3065 15.6144 11.1062 15.8134C10.9059 16.0124 10.8058 16.2463 10.8058 16.5149Z" fill="black"/>
</svg>
