<svg width="68" height="68" viewBox="0 0 68 68" fill="none" xmlns="http://www.w3.org/2000/svg">
<path fill-rule="evenodd" clip-rule="evenodd" d="M34.0003 62.3334C49.6484 62.3334 62.3337 49.6482 62.3337 34.0001C62.3337 18.352 49.6484 5.66675 34.0003 5.66675C18.3523 5.66675 5.66699 18.352 5.66699 34.0001C5.66699 49.6482 18.3523 62.3334 34.0003 62.3334ZM49.5837 20.8145V30.584H39.8134L43.7487 26.6495L42.5888 25.4907C40.6677 23.5669 38.1533 22.3477 35.4529 22.0305C32.7525 21.7134 30.0243 22.3168 27.7096 23.7431C25.3949 25.1694 23.6293 27.3351 22.6988 29.8897C21.7682 32.4442 21.7271 35.238 22.5821 37.8189C23.4371 40.3995 25.1382 42.6163 27.4099 44.11C29.6817 45.6039 32.3911 46.2873 35.0996 46.0496C37.808 45.812 40.3571 44.6673 42.334 42.8008C44.3111 40.9344 45.6 38.4553 45.9926 35.7651H49.4814C49.1577 38.6739 48.0189 41.4323 46.1961 43.7223C44.3732 46.0123 41.9406 47.7411 39.1782 48.709C36.416 49.677 33.4363 49.8452 30.5826 49.194C27.7289 48.5429 25.1172 47.099 23.0483 45.0284C21.588 43.5888 20.427 41.8746 19.6322 39.9845C18.8373 38.0943 18.4244 36.0656 18.4171 34.0151C18.4098 31.9646 18.8083 29.9331 19.5897 28.0373C20.371 26.1416 21.5198 24.4191 22.9698 22.9692C24.4198 21.5193 26.1423 20.3707 28.0382 19.5893C29.9342 18.808 31.9658 18.4096 34.0165 18.4168C36.0671 18.4241 38.096 18.8371 39.9863 19.6318C41.8765 20.4266 43.5908 21.5875 45.0306 23.0477L46.1909 24.207L49.5837 20.8145Z" fill="#FFCB1A"/>
</svg>
