<svg width="24" height="24" viewBox="0 0 24 24" fill="none" xmlns="http://www.w3.org/2000/svg">
<path fill-rule="evenodd" clip-rule="evenodd" d="M16 16C15.7085 15.1256 15.3257 14.2948 14.8626 13.5186C13.7882 11.7182 12.2818 10.2118 10.4814 9.13744C9.70521 8.6743 8.8744 8.29147 8 8C8.8744 7.70853 9.70521 7.3257 10.4814 6.86256C12.2818 5.78825 13.7882 4.28183 14.8626 2.48139C15.3257 1.70521 15.7085 0.874398 16 0C16.2915 0.874398 16.6743 1.70521 17.1374 2.48139C18.2118 4.28183 19.7182 5.78825 21.5186 6.86256C22.2948 7.3257 23.1256 7.70854 24 8C23.1256 8.29147 22.2948 8.6743 21.5186 9.13744C19.7182 10.2118 18.2118 11.7182 17.1374 13.5186C16.6743 14.2948 16.2915 15.1256 16 16ZM19.5976 8C18.1981 8.98009 16.9801 10.1981 16 11.5976C15.0199 10.1981 13.8019 8.98009 12.4024 8C13.8019 7.01991 15.0199 5.80193 16 4.40238C16.9801 5.80193 18.1981 7.01991 19.5976 8Z" fill="black"/>
<path fill-rule="evenodd" clip-rule="evenodd" d="M2.34959 15.8348C1.63217 16.3247 0.843097 16.719 0 17C0.843096 17.281 1.63217 17.6753 2.34959 18.1652C3.3253 18.8315 4.16847 19.6747 4.83477 20.6504C5.32468 21.3678 5.71897 22.1569 6.00001 23C6.28104 22.1569 6.67533 21.3678 7.16525 20.6504C7.83154 19.6747 8.67471 18.8315 9.65042 18.1652C10.3678 17.6753 11.1569 17.281 12 17C11.1569 16.719 10.3678 16.3247 9.65042 15.8348C8.67471 15.1685 7.83154 14.3253 7.16525 13.3496C6.67533 12.6322 6.28104 11.8431 6.00001 11C5.71897 11.8431 5.32468 12.6322 4.83477 13.3496C4.16847 14.3253 3.3253 15.1685 2.34959 15.8348ZM6.00001 18.8622C5.45273 18.1722 4.82779 17.5473 4.13782 17C4.82779 16.4527 5.45273 15.8278 6.00001 15.1378C6.54729 15.8278 7.17222 16.4527 7.86219 17C7.17222 17.5473 6.54729 18.1722 6.00001 18.8622Z" fill="black"/>
</svg>
