<svg width="24" height="24" viewBox="0 0 24 24" fill="none" xmlns="http://www.w3.org/2000/svg">
<path fill-rule="evenodd" clip-rule="evenodd" d="M22 12C22 17.5228 17.5228 22 12 22C6.47715 22 2 17.5228 2 12C2 6.47715 6.47715 2 12 2C17.5228 2 22 6.47715 22 12ZM9 8.2C9 8.08954 9.08954 8 9.2 8H10.8C10.9105 8 11 8.08954 11 8.2V15.8C11 15.9105 10.9105 16 10.8 16H9.2C9.08954 16 9 15.9105 9 15.8V8.2ZM13.2 8C13.0895 8 13 8.08954 13 8.2V15.8C13 15.9105 13.0895 16 13.2 16H14.8C14.9105 16 15 15.9105 15 15.8V8.2C15 8.08954 14.9105 8 14.8 8H13.2Z" fill="black"/>
</svg>
