<svg width="24" height="24" viewBox="0 0 24 24" fill="none" xmlns="http://www.w3.org/2000/svg">
<path fill-rule="evenodd" clip-rule="evenodd" d="M13 2V5.33333H11V2H13ZM19.7782 5.63604L17.4212 7.99306L16.0069 6.57885L18.364 4.22183L19.7782 5.63604ZM6.5796 7.99357L4.22258 5.63654L5.63679 4.22233L7.99382 6.57935L6.5796 7.99357ZM12 9.05352C10.3728 9.05352 9.05369 10.3726 9.05369 11.9998C9.05369 13.627 10.3728 14.9461 12 14.9461C13.6272 14.9461 14.9463 13.627 14.9463 11.9998C14.9463 10.3726 13.6272 9.05352 12 9.05352ZM7.05369 11.9998C7.05369 9.26805 9.26823 7.05352 12 7.05352C14.7318 7.05352 16.9463 9.26805 16.9463 11.9998C16.9463 14.7316 14.7318 16.9461 12 16.9461C9.26823 16.9461 7.05369 14.7316 7.05369 11.9998ZM5.33333 13H2V11H5.33333V13ZM22 13H18.6667V11H22V13ZM18.3635 19.7774L16.0064 17.4204L17.4206 16.0062L19.7777 18.3632L18.3635 19.7774ZM7.99306 17.4212L5.63604 19.7782L4.22183 18.364L6.57885 16.0069L7.99306 17.4212ZM13 18.6667V22H11V18.6667H13Z" fill="black"/>
</svg>
