<svg width="16" height="14" viewBox="0 0 16 14" fill="none" xmlns="http://www.w3.org/2000/svg">
<path d="M14.2066 3.63713C14.2161 3.77389 14.2161 3.91066 14.2161 4.04868C14.2161 8.25436 10.9972 13.1048 5.11131 13.1048V13.1023C3.3726 13.1048 1.67001 12.6094 0.206299 11.6754C0.459121 11.7056 0.713211 11.7207 0.967935 11.7214C2.40883 11.7226 3.80855 11.2418 4.94213 10.3562C3.57283 10.3304 2.37208 9.44238 1.95261 8.14595C2.43228 8.23797 2.92652 8.21906 3.39731 8.09112C1.90446 7.79112 0.830435 6.4865 0.830435 4.97137C0.830435 4.95751 0.830435 4.94427 0.830435 4.93104C1.27525 5.17747 1.77329 5.31423 2.28274 5.32936C0.876691 4.39469 0.44328 2.53419 1.29236 1.07957C2.91701 3.06801 5.31408 4.27684 7.88729 4.40478C7.6294 3.29931 7.9817 2.14091 8.81304 1.36381C10.1019 0.158769 12.1289 0.220534 13.3404 1.50184C14.057 1.36129 14.7439 1.09974 15.3725 0.729147C15.1336 1.46591 14.6337 2.09175 13.9658 2.48944C14.6001 2.41507 15.2198 2.24616 15.8034 1.98839C15.3738 2.62873 14.8326 3.1865 14.2066 3.63713Z" fill="black"/>
</svg>
