<svg width="40" height="40" viewBox="0 0 40 40" fill="none" xmlns="http://www.w3.org/2000/svg">
<path d="M32.4137 15.2742C32.4327 15.5477 32.4327 15.8212 32.4327 16.0973C32.4327 24.5086 25.9949 34.2095 14.2231 34.2095V34.2044C10.7457 34.2095 7.34051 33.2187 4.41309 31.3507C4.91873 31.4112 5.42691 31.4414 5.93636 31.4427C8.81816 31.4452 11.6176 30.4834 13.8847 28.7124C11.1462 28.6607 8.74465 26.8847 7.90571 24.2918C8.86504 24.4759 9.85352 24.438 10.7951 24.1822C7.8094 23.5822 5.66136 20.9729 5.66136 17.9427C5.66136 17.9149 5.66136 17.8885 5.66136 17.862C6.55099 18.3549 7.54707 18.6284 8.56597 18.6586C5.75387 16.7893 4.88705 13.0683 6.58521 10.1591C9.83451 14.1359 14.6286 16.5536 19.7751 16.8095C19.2593 14.5986 19.9639 12.2817 21.6266 10.7275C24.2042 8.31746 28.2582 8.44099 30.6813 11.0036C32.1146 10.7225 33.4883 10.1994 34.7455 9.45822C34.2677 10.9317 33.2678 12.1834 31.9321 12.9788C33.2006 12.8301 34.44 12.4923 35.6072 11.9767C34.748 13.2574 33.6657 14.3729 32.4137 15.2742Z" fill="#ADADAD"/>
</svg>
