<svg width="24" height="24" viewBox="0 0 24 24" fill="none" xmlns="http://www.w3.org/2000/svg">
<path fill-rule="evenodd" clip-rule="evenodd" d="M7.94118 6.81429C7.94118 4.57133 9.75669 2.75 12 2.75C14.2433 2.75 16.0588 4.57133 16.0588 6.81429V9.17143C16.0588 11.4144 14.2433 13.2357 12 13.2357C9.75669 13.2357 7.94118 11.4144 7.94118 9.17143V6.81429ZM12 4.75C10.8646 4.75 9.94118 5.67253 9.94118 6.81429V9.17143C9.94118 10.3132 10.8646 11.2357 12 11.2357C13.1354 11.2357 14.0588 10.3132 14.0588 9.17143V6.81429C14.0588 5.67253 13.1354 4.75 12 4.75ZM7.31269 18.0767C5.98822 18.9782 5.16487 20.0137 4.93201 20.6124L3.068 19.8876C3.5018 18.7721 4.67845 17.4504 6.18731 16.4233C7.72598 15.376 9.75203 14.5357 12 14.5357C14.248 14.5357 16.274 15.376 17.8127 16.4233C19.3216 17.4504 20.4982 18.7721 20.932 19.8876L19.068 20.6124C18.8351 20.0137 18.0118 18.9782 16.6873 18.0767C15.3926 17.1954 13.752 16.5357 12 16.5357C10.248 16.5357 8.60736 17.1954 7.31269 18.0767Z" fill="black"/>
</svg>
