<svg width="24" height="24" viewBox="0 0 24 24" fill="none" xmlns="http://www.w3.org/2000/svg">
<path fill-rule="evenodd" clip-rule="evenodd" d="M12.0006 4C7.58251 4 4.00098 7.58153 4.00098 11.9996C4.00098 14.0486 4.77134 15.9177 6.03823 17.333C6.40461 16.8944 6.88423 16.4623 7.44424 16.0879C8.56099 15.3414 10.1009 14.75 12.0027 14.75C13.8962 14.75 15.4317 15.3415 16.547 16.0872C17.1102 16.4638 17.5915 16.8978 17.9592 17.3371C19.2283 15.9213 20.0001 14.0506 20.0001 11.9996C20.0001 7.58153 16.4186 4 12.0006 4ZM16.449 18.6492C16.2339 18.3861 15.9032 18.0626 15.4354 17.7498C14.6196 17.2044 13.4664 16.75 12.0027 16.75C10.5286 16.75 9.37119 17.2055 8.55576 17.7506C8.08809 18.0632 7.75985 18.3855 7.54761 18.6462C8.82047 19.5007 10.3523 19.9992 12.0006 19.9992C13.6469 19.9992 15.1771 19.5018 16.449 18.6492ZM2.00098 11.9996C2.00098 6.47696 6.47794 2 12.0006 2C17.5232 2 22.0001 6.47696 22.0001 11.9996C22.0001 17.5222 17.5232 21.9992 12.0006 21.9992C6.47794 21.9992 2.00098 17.5222 2.00098 11.9996ZM12.0012 8.3C11.0988 8.3 10.3672 9.03158 10.3672 9.93402C10.3672 10.8365 11.0988 11.568 12.0012 11.568C12.9037 11.568 13.6352 10.8365 13.6352 9.93402C13.6352 9.03158 12.9037 8.3 12.0012 8.3ZM8.36719 9.93402C8.36719 7.92701 9.99419 6.3 12.0012 6.3C14.0082 6.3 15.6352 7.92701 15.6352 9.93402C15.6352 11.941 14.0082 13.568 12.0012 13.568C9.99419 13.568 8.36719 11.941 8.36719 9.93402Z" fill="black"/>
</svg>
