<svg width="24" height="24" viewBox="0 0 24 24" fill="none" xmlns="http://www.w3.org/2000/svg">
<path fill-rule="evenodd" clip-rule="evenodd" d="M12 2.91895V21.0802L5.64924 16H1V7.99997H5.6492L12 2.91895ZM10 7.08039L6.3508 9.99997H3V14H6.35076L10 16.9191V7.08039ZM15.5393 7.04572L16.2463 7.75293C17.3711 8.8781 18.003 10.4039 18.003 11.9949C18.003 13.5859 17.3711 15.1118 16.2463 16.2369L15.5393 16.9441L14.1248 15.5301L14.8318 14.8229C15.5817 14.0728 16.003 13.0556 16.003 11.9949C16.003 10.9343 15.5817 9.91704 14.8318 9.16693L14.1248 8.45972L15.5393 7.04572Z" fill="black"/>
</svg>
