<svg width="24" height="24" viewBox="0 0 24 24" fill="none" xmlns="http://www.w3.org/2000/svg">
<path fill-rule="evenodd" clip-rule="evenodd" d="M12 2.91895V21.0802L5.64924 16H1V7.99997H5.6492L12 2.91895ZM19.0705 3.51544L19.7775 4.22266C21.8397 6.28546 22.9982 9.08285 22.9982 11.9997C22.9982 14.9165 21.8397 17.7139 19.7775 19.7767L19.0705 20.4839L17.6561 19.0699L18.3631 18.3627C20.0503 16.6749 20.9982 14.3861 20.9982 11.9997C20.9982 9.61318 20.0503 7.32441 18.3631 5.63666L17.6561 4.92944L19.0705 3.51544ZM10 7.08039L6.3508 9.99997H3V14H6.35076L10 16.9191V7.08039ZM15.5393 7.04572L16.2463 7.75293C17.3711 8.8781 18.003 10.4039 18.003 11.9949C18.003 13.5859 17.3711 15.1118 16.2463 16.2369L15.5393 16.9441L14.1248 15.5301L14.8318 14.8229C15.5817 14.0728 16.003 13.0556 16.003 11.9949C16.003 10.9343 15.5817 9.91704 14.8318 9.16693L14.1248 8.45972L15.5393 7.04572Z" fill="black"/>
</svg>
