<svg width="24" height="24" viewBox="0 0 24 24" fill="none" xmlns="http://www.w3.org/2000/svg">
<path fill-rule="evenodd" clip-rule="evenodd" d="M12 4.51544C10.3432 4.51544 9 5.85859 9 7.51544C9 9.1723 10.3432 10.5154 12 10.5154C13.6569 10.5154 15 9.1723 15 7.51544C15 5.85859 13.6569 4.51544 12 4.51544ZM7 7.51544C7 4.75402 9.23858 2.51544 12 2.51544C14.7614 2.51544 17 4.75402 17 7.51544C17 10.2769 14.7614 12.5154 12 12.5154C9.23858 12.5154 7 10.2769 7 7.51544ZM12 14.4305L20.6838 11.5359L21.3162 13.4333L13 16.2054V21.4846H11V16.2054L2.68378 13.4333L3.31623 11.5359L12 14.4305Z" fill="black"/>
</svg>
