<svg width="128" height="128" viewBox="0 0 128 128" fill="none" xmlns="http://www.w3.org/2000/svg">
<path fill-rule="evenodd" clip-rule="evenodd" d="M64 12.8C35.723 12.8 12.8 35.723 12.8 64C12.8 69.898 13.7973 75.5631 15.6324 80.8359C16.9011 78.9316 18.354 77.0016 19.9436 75.0711C27.2802 66.1614 38.5158 56.0606 51.8741 46.707C65.2324 37.3534 78.5669 30.2501 89.4485 26.4033C91.8126 25.5675 94.1293 24.8608 96.3581 24.3194C87.5386 17.1187 76.2736 12.8 64 12.8ZM106.264 35.9684C105.914 35.9291 105.435 35.9044 104.795 35.9234C102.248 35.9987 98.5134 36.775 93.7148 38.4714C84.2056 41.833 71.9045 48.3075 59.2159 57.1921C46.5272 66.0768 36.236 75.4217 29.8248 83.2076C26.5895 87.1367 24.5827 90.3806 23.6407 92.7483C23.404 93.3435 23.2635 93.8015 23.1809 94.1435C23.5306 94.1829 24.009 94.2076 24.6492 94.1886C27.1963 94.1133 30.931 93.337 35.7296 91.6406C45.2388 88.279 57.5399 81.8045 70.2286 72.9199C82.9172 64.0352 93.2084 54.6903 99.6197 46.9043C102.855 42.9753 104.862 39.7314 105.804 37.3636C106.04 36.7685 106.181 36.3105 106.264 35.9684ZM34.0691 105.545C35.9933 105.042 37.9773 104.422 39.9959 103.709C50.8776 99.8619 64.212 92.7586 77.5703 83.405C90.9287 74.0514 102.164 63.9506 109.501 55.0409C110.872 53.3752 112.142 51.7098 113.28 50.0611C114.531 54.4926 115.2 59.1681 115.2 64C115.2 92.277 92.277 115.2 64 115.2C52.8255 115.2 42.4871 111.62 34.0691 105.545ZM12.4765 101.972C24.1315 117.76 42.8699 128 64 128C99.3462 128 128 99.3462 128 64C128 28.6538 99.3462 0 64 0C28.6538 0 0 28.6538 0 64C0 78.2162 4.63512 91.3497 12.4765 101.972Z" fill="black"/>
</svg>
