<svg width="24" height="24" viewBox="0 0 24 24" fill="none" xmlns="http://www.w3.org/2000/svg">
<path d="M0 12C0 1.56 1.56 0 12 0C22.44 0 24 1.56 24 12C24 22.44 22.44 24 12 24C1.56 24 0 22.44 0 12Z" fill="#AEAFB7"/>
<path d="M13.5035 14.6166L15.3635 5.05664V5.06664H17.6535L17.6235 5.23664L15.7535 14.7766C15.4535 16.2867 14.9135 17.3067 14.0435 17.9967C13.2035 18.6567 12.1335 18.9867 10.8635 18.9867C9.69347 18.9867 8.66353 18.6966 7.86352 18.1566C7.05352 17.6067 6.54352 16.8066 6.38352 15.8367L6.35352 15.6666H8.6835L8.72353 15.7566C9.0135 16.5267 9.8235 16.9666 10.9235 16.9666C13.0635 16.9666 13.3735 15.3166 13.5035 14.6166Z" fill="white"/>
<path d="M12.7337 11.3977L12.3437 13.4277L6.34375 10.6477V8.65765L13.9138 5.3877L13.4537 7.7877L9.06372 9.62768L12.7337 11.3977Z" fill="white"/>
</svg>
