<svg width="24" height="24" viewBox="0 0 24 24" fill="none" xmlns="http://www.w3.org/2000/svg">
<g opacity="0.6">
<path fill-rule="evenodd" clip-rule="evenodd" d="M2.58984 3.17578V13.1758C2.58984 13.7258 3.03984 14.1758 3.58984 14.1758H5.58984V21.3258C5.58984 21.8358 6.25984 22.0158 6.51984 21.5758L11.7098 12.6758C12.0998 12.0058 11.6198 11.1758 10.8498 11.1758H8.58984L11.9698 3.58578C12.2598 2.91578 11.7698 2.17578 11.0498 2.17578H3.58984C3.03984 2.17578 2.58984 2.62578 2.58984 3.17578ZM17.5898 2.17578C16.9898 2.17578 16.4598 2.55578 16.2498 3.11578L13.8098 9.97578C13.6098 10.5658 14.0398 11.1758 14.6598 11.1758C15.0398 11.1758 15.3798 10.9358 15.4998 10.5758L15.9898 9.17578H19.1898L19.6798 10.5758C19.8098 10.9358 20.1398 11.1758 20.5198 11.1758C21.1398 11.1758 21.5698 10.5658 21.3598 9.98578L18.9198 3.12578C18.7198 2.55578 18.1898 2.17578 17.5898 2.17578ZM17.5898 4.17578L16.4398 7.82578H18.7398L17.5898 4.17578Z" fill="#232A34"/>
</g>
</svg>
